<svg width="1920" height="768" viewBox="0 0 1920 768" version="1.1" xmlns="http://www.w3.org/2000/svg" xmlns:xlink="http://www.w3.org/1999/xlink"><title>assets</title><defs><path id="a" d="M0 .096h19.82V41H0"/><path id="c" d="M0 .153h31.421V65H0"/></defs><g stroke="none" stroke-width="1" fill="none" fill-rule="evenodd"><g fill="#504D47"><path d="M32.812 32.048c2.36 0 4.282-1.902 4.282-4.256 0-2.348-1.921-4.256-4.282-4.256-2.366 0-4.283 1.908-4.283 4.256 0 2.354 1.917 4.256 4.283 4.256m28.414 1.494H27.093c-2.486 0-4.026 2.006-4.026 4.476v9.863c0 .886.725 1.607 1.62 1.607.89 0 1.617-.72 1.617-1.607v-7.11h1.95v21.328a1.77 1.77 0 0 0 1.774 1.763c.982 0 1.774-.79 1.774-1.763V46.477h2.134v15.622c0 .973.799 1.763 1.775 1.763.985 0 1.78-.79 1.78-1.763V38.285h13.345v23.814c0 .973.792 1.763 1.772 1.763.978 0 1.776-.79 1.776-1.763V46.477h2.135v15.622c0 .973.793 1.763 1.772 1.763.983 0 1.78-.79 1.78-1.763V40.77h1.942v7.11c0 .887.73 1.608 1.62 1.608.893 0 1.622-.72 1.622-1.607v-9.863c0-2.47-1.543-4.476-4.03-4.476m-5.714-1.494c2.368 0 4.284-1.902 4.284-4.256 0-2.348-1.916-4.256-4.284-4.256-2.363 0-4.282 1.908-4.282 4.256 0 2.354 1.92 4.256 4.282 4.256"/><path d="M47.058 47.534v-6.65l-5.794 3.324 5.794 3.326m-5.794-16.375v-6.65l5.794 3.324-5.794 3.326"/></g><g fill="#504D47"><path d="M123.226 26.765c1.967 0 3.568-1.585 3.568-3.547 0-1.956-1.601-3.547-3.568-3.547-1.972 0-3.57 1.591-3.57 3.547 0 1.962 1.598 3.547 3.57 3.547m23.678 1.245H118.46c-2.072 0-3.355 1.671-3.355 3.73v8.22c0 .738.604 1.338 1.35 1.338.742 0 1.347-.6 1.347-1.339v-5.925h1.625v17.774c0 .81.664 1.469 1.478 1.469.82 0 1.48-.658 1.48-1.47V38.79h1.777v13.019c0 .81.666 1.469 1.48 1.469.82 0 1.482-.658 1.482-1.47V31.963h11.121v19.846c0 .81.66 1.469 1.477 1.469.815 0 1.48-.658 1.48-1.47V38.79h1.78v13.019c0 .81.66 1.469 1.476 1.469.82 0 1.483-.658 1.483-1.47V34.035h1.62v5.925c0 .739.607 1.34 1.348 1.34.745 0 1.353-.601 1.353-1.34v-8.22c0-2.058-1.286-3.729-3.358-3.729m-4.762-1.246c1.973 0 3.57-1.585 3.57-3.547 0-1.956-1.597-3.547-3.57-3.547-1.97 0-3.57 1.591-3.57 3.547 0 1.962 1.6 3.547 3.57 3.547"/><path d="M135.097 39.67v-5.542l-4.828 2.77 4.828 2.772m-4.828-13.646v-5.542l4.828 2.77-4.828 2.772"/></g><path d="M222.094 2.412a1.884 1.884 0 0 1 1.661-1.062h.04c1.523 0 4.009 3.033-1.701 6.067-5.711-3.034-3.224-6.067-1.702-6.067h.041c.586 0 1.31.335 1.66 1.062m-21.102 5.536c-2.088 0-3.779-1.671-3.779-3.741 0-2.065 1.69-3.743 3.78-3.743 2.085 0 3.777 1.678 3.777 3.743 0 2.07-1.692 3.74-3.778 3.74m4.126 26.423c0 .855-.7 1.55-1.564 1.55a1.56 1.56 0 0 1-1.567-1.55V20.633h-1.883v13.735c0 .856-.7 1.55-1.563 1.55a1.56 1.56 0 0 1-1.57-1.55V15.617h-1.714v6.251c0 .78-.644 1.413-1.428 1.413a1.425 1.425 0 0 1-1.432-1.413v-8.671c0-2.17 1.362-3.934 3.554-3.934h26.213c.786 0 1.425.637 1.425 1.415 0 .78-.639 1.42-1.425 1.42h-17.046v22.271" fill="#FFF"/><path d="M198.921 14.382a1.884 1.884 0 0 1 1.662-1.061h.04c1.522 0 4.008 3.032-1.702 6.067-5.711-3.035-3.225-6.067-1.701-6.067h.04c.586 0 1.31.335 1.661 1.06" fill="#53C9A6"/><path d="M11.02 96.198a.798.798 0 0 0-1.051 0 .633.633 0 0 0 0 .955l3.49 3.171H.745c-.41 0-.744.303-.744.676 0 .373.333.676.744.676H13.46l-3.491 3.17a.633.633 0 0 0 0 .956.782.782 0 0 0 .526.198c.19 0 .38-.066.526-.198l4.761-4.324a.633.633 0 0 0 0-.956l-4.761-4.324z" fill="#3E3C36"/><path d="M107.02 96.198a.798.798 0 0 0-1.051 0 .633.633 0 0 0 0 .955l3.49 3.171H96.745c-.41 0-.744.303-.744.676 0 .373.333.676.744.676h12.716l-3.491 3.17a.633.633 0 0 0 0 .956.782.782 0 0 0 .526.198c.19 0 .38-.066.526-.198l4.761-4.324a.633.633 0 0 0 0-.956l-4.761-4.324z" fill="#FFF"/><path d="M203.02 96.198a.798.798 0 0 0-1.051 0 .633.633 0 0 0 0 .955l3.49 3.171h-12.715c-.41 0-.744.303-.744.676 0 .373.333.676.744.676h12.716l-3.491 3.17a.633.633 0 0 0 0 .956.782.782 0 0 0 .526.198c.19 0 .38-.066.526-.198l4.761-4.324a.633.633 0 0 0 0-.956l-4.761-4.324z" fill="#53C9A6"/><path d="M133 267.18c0-26.393-21.385-47.79-47.766-47.79-26.381 0-47.767 21.397-47.767 47.79 0 13.99 6.01 26.575 15.588 35.314a31.969 31.969 0 0 0 2.524 12 32.07 32.07 0 0 0 6.897 10.235 32.078 32.078 0 0 0 10.23 6.9 31.957 31.957 0 0 0 12.528 2.531c4.344 0 8.56-.851 12.528-2.532a32.078 32.078 0 0 0 10.23-6.9 32.065 32.065 0 0 0 6.897-10.238 31.92 31.92 0 0 0 2.524-11.994C126.991 293.755 133 281.17 133 267.179zm-86.222 0c0-21.248 17.217-38.474 38.456-38.474 21.237 0 38.456 17.226 38.456 38.473 0 21.248-17.219 38.472-38.456 38.472-21.239 0-38.456-17.224-38.456-38.472zm55.55 51.876c-4.566 4.568-10.637 7.086-17.094 7.086a24.012 24.012 0 0 1-17.094-7.08 24.069 24.069 0 0 1-6.046-10.068 47.54 47.54 0 0 0 23.14 5.972 47.53 47.53 0 0 0 23.14-5.973c-1.135 3.764-3.19 7.206-6.047 10.063z" fill="#4B4B42"/><path d="M119.08 267.344a6.846 6.846 0 0 0-8.243-6.704 6.846 6.846 0 0 0-4.116-12.316 6.828 6.828 0 0 0-5.625 2.95 6.9 6.9 0 0 0 .213-1.708 6.845 6.845 0 1 0-13.69 0v35.643a6.846 6.846 0 0 0 6.846 6.847 6.847 6.847 0 0 0 6.629-8.554 6.845 6.845 0 1 0 9.565-9.496 6.845 6.845 0 0 0 8.421-6.662zm-26.826 9.923v-20.234l17.518 10.116-17.518 10.118z" fill="#4B4B42"/><path d="M75.409 267.431a5.297 5.297 0 1 1-10.596 0 5.299 5.299 0 1 1 10.596 0" fill="#FF634C"/><path d="M56.022 261.842c-1.054 0-2.016-.422-2.016-2.008-1.295 1.316-2.801 4.475-2.801 7.163 0 1.485.482 2.967 1.306 4.112.631.886 1.466 1.658 2.437 2.162.05.024.101.072.151.098.018.009.034.026.05.034.503.244 1.04.436 1.605.554l.005-.014a6.789 6.789 0 0 0 2.903-.051 6.845 6.845 0 0 0-2.904 5.598 6.844 6.844 0 0 0 6.843 6.846 6.828 6.828 0 0 0 5.623-2.947 6.884 6.884 0 0 0-.217 1.705c0 3.782 3.154 6.848 6.934 6.848 3.78 0 6.926-3.066 6.926-6.848v-35.643c0-3.78-3.147-6.846-6.926-6.846-3.78 0-6.878 3.065-6.878 6.846 0 .59.05 1.161.19 1.708a6.859 6.859 0 0 0-5.638-2.95c-3.78 0-6.85 3.157-6.85 6.94 0 .826.074 1.303.386 2.41h12.92c5.47 0 9.905 4.36 9.905 9.834 0 5.473-4.434 9.88-9.905 9.88h.042c-5.436 0-9.836-4.405-9.836-9.84 0-2.078.642-4.003 1.739-5.59h-5.994" fill="#4B4B42"/><path d="M197.083 192.292a5.288 5.288 0 0 0-1.893.924 4.618 4.618 0 0 0-1.3 1.591c-.32.638-.482 1.404-.482 2.294 0 1.355.35 2.46 1.053 3.31.705.849 1.628 1.415 2.78 1.697L192 208.704h4.753l4.611-6.294h2.693v6.294h3.785V192h-8.491c-.792 0-1.55.099-2.268.292zm6.974 2.586v4.795h-3.591c-.434 0-.854-.034-1.257-.105a2.852 2.852 0 0 1-1.07-.397 2.218 2.218 0 0 1-.742-.782c-.186-.331-.28-.752-.28-1.266 0-.483.09-.869.267-1.158.18-.288.417-.514.717-.679.3-.163.64-.273 1.02-.327a8.32 8.32 0 0 1 1.178-.08h3.758zm16.357 2.866a5.908 5.908 0 0 0-2.053-1.288c-.802-.303-1.694-.456-2.68-.456-.986 0-1.877.153-2.669.456a5.862 5.862 0 0 0-2.036 1.288 5.53 5.53 0 0 0-1.31 2.012c-.312.787-.461 1.664-.461 2.631 0 .968.15 1.842.46 2.621.305.78.742 1.448 1.311 2 .563.554 1.245.98 2.036 1.274.792.298 1.683.446 2.668.446.987 0 1.88-.148 2.681-.446a5.75 5.75 0 0 0 2.053-1.274 5.613 5.613 0 0 0 1.306-2c.311-.779.462-1.653.462-2.62 0-.968-.15-1.845-.462-2.632a5.577 5.577 0 0 0-1.306-2.012zm-1.82 6.059c-.097.46-.263.874-.498 1.242a2.57 2.57 0 0 1-.947.877c-.397.217-.887.327-1.469.327-.58 0-1.068-.11-1.454-.327a2.612 2.612 0 0 1-.936-.877 3.775 3.775 0 0 1-.498-1.242 6.827 6.827 0 0 1-.142-1.416c0-.484.045-.958.142-1.426.098-.47.265-.88.498-1.24a2.76 2.76 0 0 1 .936-.878c.386-.226.874-.339 1.454-.339.582 0 1.072.113 1.469.339.396.226.714.52.947.877.235.36.4.771.498 1.24.097.469.142.943.142 1.427 0 .485-.045.956-.142 1.416zm14.097-5.722h-.052a3.653 3.653 0 0 0-1.587-1.344 5.113 5.113 0 0 0-2.124-.456c-.924 0-1.73.176-2.427.527a5.147 5.147 0 0 0-1.733 1.392 6.008 6.008 0 0 0-1.045 2 7.908 7.908 0 0 0-.35 2.35c0 .845.116 1.654.35 2.434.234.78.584 1.471 1.045 2.071a4.927 4.927 0 0 0 1.757 1.428c.711.351 1.539.526 2.476.526.824 0 1.565-.143 2.219-.43.656-.293 1.186-.764 1.589-1.42h.05v1.545h3.274V192h-3.442v6.081zm-.028 5.991a3.82 3.82 0 0 1-.483 1.254 2.559 2.559 0 0 1-.91.877c-.385.217-.852.327-1.421.327-.532 0-.986-.114-1.368-.342a2.88 2.88 0 0 1-.945-.889 3.641 3.641 0 0 1-.547-1.25 5.851 5.851 0 0 1-.172-1.404c0-.498.055-.98.158-1.44.105-.46.275-.867.508-1.227.235-.36.546-.648.937-.866.387-.219.867-.327 1.429-.327.57 0 1.036.108 1.41.327.372.218.672.504.91.855.231.35.399.757.494 1.214.101.462.146.942.146 1.44 0 .5-.045.983-.146 1.451zm15.017-5.872a5.52 5.52 0 0 0-1.95-1.603c-.797-.398-1.727-.597-2.792-.597-.954 0-1.822.165-2.612.492a6.237 6.237 0 0 0-2.024 1.345 5.83 5.83 0 0 0-1.306 2.024 6.799 6.799 0 0 0-.466 2.526c0 .936.152 1.795.452 2.574.295.78.725 1.45 1.27 2.014a5.59 5.59 0 0 0 2.015 1.295c.792.306 1.682.458 2.67.458 1.424 0 2.638-.312 3.64-.937 1-.623 1.745-1.66 2.23-3.11l.056-.187h-3.03l-.057.186c-.116.375-.418.73-.919 1.065-.505.336-1.106.504-1.798.504-.972 0-1.715-.243-2.231-.727-.52-.483-.806-1.263-.85-2.338h9.047a8.216 8.216 0 0 0-.241-2.693 6.418 6.418 0 0 0-1.104-2.29zm-7.702 2.878c.018-.235.069-.5.158-.797a2.37 2.37 0 0 1 .461-.841c.217-.265.508-.489.872-.667.367-.179.82-.269 1.37-.269.843 0 1.468.219 1.881.654.414.437.7 1.077.862 1.92h-5.604zm20.093 1.088a4.95 4.95 0 0 0-1.273-.621 15.31 15.31 0 0 0-1.467-.398 58.04 58.04 0 0 0-1.436-.304c-.468-.093-.884-.2-1.248-.316-.365-.117-.66-.268-.883-.456a.888.888 0 0 1-.341-.725c0-.25.065-.449.193-.596a1.27 1.27 0 0 1 .473-.34 2.1 2.1 0 0 1 .622-.152 6.14 6.14 0 0 1 .628-.036c.615 0 1.148.116 1.603.34.452.225.704.66.749 1.3h3.276c-.064-.75-.264-1.37-.592-1.86a3.915 3.915 0 0 0-1.251-1.182 5.395 5.395 0 0 0-1.709-.633 10.36 10.36 0 0 0-1.98-.187c-.68 0-1.341.057-1.99.176a5.61 5.61 0 0 0-1.746.609c-.52.287-.935.681-1.247 1.182-.316.498-.474 1.137-.474 1.917 0 .53.115.98.338 1.345a2.9 2.9 0 0 0 .9.913c.373.242.794.438 1.272.586.476.146.966.276 1.47.386 1.227.248 2.185.498 2.872.747.689.249 1.03.625 1.03 1.123 0 .296-.068.543-.214.737-.148.196-.33.351-.55.47-.217.116-.46.2-.725.256a3.717 3.717 0 0 1-.765.082 4.02 4.02 0 0 1-.982-.117 2.676 2.676 0 0 1-.839-.363 1.929 1.929 0 0 1-.592-.633c-.154-.257-.23-.563-.23-.922h-3.276c.03.81.222 1.485.566 2.023.353.537.794.971 1.336 1.3a5.8 5.8 0 0 0 1.856.701c.697.141 1.408.21 2.134.21.716 0 1.414-.066 2.101-.2a5.351 5.351 0 0 0 1.83-.689 3.9 3.9 0 0 0 1.3-1.299c.33-.537.497-1.206.497-2 0-.562-.114-1.032-.34-1.416a2.992 2.992 0 0 0-.896-.958m9.909-1.112l4.728-4.444h-4.073l-4.345 4.35V192h-3.447v16.704h3.447v-4.164l1.337-1.24 3.445 5.404h4.17l-5.263-7.65" fill="#FFF"/><path d="M292.596 2.561a2.22 2.22 0 0 0-1.955-1.233h-.047c-1.791 0-4.716 3.522 2.002 7.044 6.718-3.522 3.792-7.044 2.001-7.044h-.048c-.69 0-1.541.39-1.953 1.233" fill="#3E3B36"/><path d="M317.422 8.988c2.457 0 4.446-1.94 4.446-4.343 0-2.397-1.989-4.344-4.446-4.344-2.454 0-4.445 1.947-4.445 4.344 0 2.403 1.991 4.343 4.445 4.343m-4.853 30.674c0 .993.822 1.8 1.839 1.8 1.016 0 1.844-.807 1.844-1.8V23.716h2.215v15.946c0 .993.823 1.8 1.839 1.8 1.02 0 1.847-.807 1.847-1.8v-21.77h2.017v7.257c0 .905.757 1.64 1.68 1.64.928 0 1.685-.735 1.685-1.64V15.082c0-2.52-1.603-4.567-4.182-4.567h-30.84c-.924 0-1.676.74-1.676 1.643 0 .906.752 1.648 1.677 1.648h20.055v25.856" fill="#000"/><path d="M319.858 16.458a2.22 2.22 0 0 0-1.955-1.232h-.047c-1.791 0-4.716 3.52 2.002 7.044 6.718-3.523 3.793-7.044 2.001-7.044h-.048c-.69 0-1.541.389-1.953 1.232" fill="#3E3C36"/><g fill="#504D47"><path d="M393.182 8.11c2.196 0 3.983-1.77 3.983-3.96 0-2.183-1.787-3.959-3.983-3.959-2.2 0-3.984 1.776-3.984 3.96 0 2.19 1.783 3.958 3.984 3.958M419.614 9.5h-31.751c-2.313 0-3.746 1.865-3.746 4.163v9.175c0 .824.674 1.495 1.508 1.495.827 0 1.503-.67 1.503-1.495v-6.614h1.814v19.84c0 .906.74 1.64 1.65 1.64.914 0 1.65-.734 1.65-1.64V21.532h1.986v14.532c0 .906.743 1.64 1.65 1.64.917 0 1.656-.734 1.656-1.64V13.911h12.414v22.153c0 .906.737 1.64 1.649 1.64.91 0 1.652-.734 1.652-1.64V21.532h1.986v14.532c0 .906.738 1.64 1.648 1.64.915 0 1.656-.734 1.656-1.64v-19.84h1.807v6.614c0 .824.679 1.495 1.506 1.495.831 0 1.51-.67 1.51-1.495v-9.175c0-2.298-1.436-4.163-3.748-4.163m-5.316-1.39c2.202 0 3.985-1.77 3.985-3.96 0-2.183-1.783-3.959-3.985-3.959-2.198 0-3.984 1.776-3.984 3.96 0 2.19 1.786 3.958 3.984 3.958"/><path d="M406.434 22.515V16.33l-5.39 3.093 5.39 3.093m-5.39-15.233V1.096l5.39 3.093-5.39 3.094"/></g><path d="M293.775 192.332a6.005 6.005 0 0 0-2.15 1.05 5.251 5.251 0 0 0-1.478 1.81c-.363.727-.547 1.597-.547 2.61 0 1.542.398 2.798 1.196 3.765.801.966 1.85 1.609 3.158 1.93L288 211h5.4l5.24-7.159h3.06V211h4.3v-19h-9.648c-.9 0-1.76.112-2.577.332zm7.924 2.942v5.454h-4.08c-.493 0-.97-.04-1.428-.12a3.238 3.238 0 0 1-1.215-.452 2.521 2.521 0 0 1-.844-.889c-.212-.376-.318-.855-.318-1.44 0-.55.101-.988.303-1.316a2.19 2.19 0 0 1 .815-.773 3.42 3.42 0 0 1 1.16-.373 9.474 9.474 0 0 1 1.338-.091h4.27zM66.733 387.885c-9.437 2.575-17.757 6.68-24.849 12.27-7.125 5.602-12.841 12.656-17.07 21.151-4.193 8.485-6.324 18.653-6.324 30.484 0 18.014 4.6 32.695 13.822 43.997 9.256 11.28 21.376 18.796 36.495 22.549L0 606h62.403l60.544-83.648h35.356V606H208V384H96.508c-10.395 0-20.339 1.31-29.775 3.885zm91.57 34.368v63.729h-47.15c-5.693 0-11.217-.463-16.505-1.398-5.378-.924-10.023-2.696-14.037-5.282-4.047-2.608-7.317-6.075-9.752-10.389-2.446-4.402-3.675-9.992-3.675-16.826 0-6.427 1.172-11.544 3.506-15.385 2.368-3.83 5.48-6.834 9.414-9.024 3.935-2.168 8.4-3.632 13.394-4.358 4.95-.715 10.124-1.067 15.468-1.067h49.337zm163.063 59.689c-4.718 1.288-8.878 3.34-12.424 6.136-3.563 2.8-6.42 6.327-8.535 10.575-2.097 4.243-3.162 9.327-3.162 15.242 0 9.007 2.3 16.347 6.911 21.998 4.628 5.64 10.688 9.399 18.248 11.275L288 591h31.202l30.271-41.824h17.678V591H392V480h-55.746c-5.197 0-10.17.655-14.888 1.942zm45.785 17.184v31.865h-23.574a47.37 47.37 0 0 1-8.253-.699c-2.689-.462-5.011-1.348-7.018-2.641-2.024-1.304-3.659-3.038-4.876-5.194-1.224-2.201-1.838-4.997-1.838-8.414 0-3.213.586-5.772 1.753-7.692 1.184-1.915 2.74-3.417 4.707-4.512 1.967-1.084 4.2-1.816 6.697-2.179a54.144 54.144 0 0 1 7.734-.534h24.668z" fill="#FFF"/><g fill="#504D47"><path d="M495.793 13.948c3.777 0 6.851-3.042 6.851-6.809 0-3.756-3.074-6.81-6.85-6.81-3.786 0-6.853 3.054-6.853 6.81 0 3.767 3.067 6.81 6.852 6.81m45.462 2.391h-54.611c-3.978 0-6.442 3.208-6.442 7.16v15.781a2.582 2.582 0 0 0 2.593 2.572 2.584 2.584 0 0 0 2.586-2.572V27.905h3.12V62.03a2.832 2.832 0 0 0 2.837 2.82 2.828 2.828 0 0 0 2.84-2.82V37.035h3.414V62.03c0 1.557 1.278 2.82 2.84 2.82 1.575 0 2.847-1.263 2.847-2.82V23.927h21.352v38.104a2.828 2.828 0 0 0 2.835 2.82c1.566 0 2.843-1.263 2.843-2.82V37.035h3.415V62.03a2.83 2.83 0 0 0 2.835 2.82c1.574 0 2.848-1.263 2.848-2.82V27.905h3.109V39.28c0 1.418 1.167 2.572 2.59 2.572 1.43 0 2.596-1.154 2.596-2.572V23.5c0-3.953-2.469-7.162-6.447-7.162m-9.143-2.39c3.788 0 6.854-3.042 6.854-6.809 0-3.756-3.066-6.81-6.854-6.81-3.78 0-6.852 3.054-6.852 6.81 0 3.767 3.071 6.81 6.852 6.81"/><path d="M518.587 38.726v-10.64l-9.27 5.32 9.27 5.32m-9.271-26.2V1.886l9.27 5.32-9.27 5.32"/></g><g fill="#272622"><path d="M392.984 103.918c2.196 0 3.983-1.768 3.983-3.958 0-2.184-1.787-3.96-3.983-3.96-2.2 0-3.984 1.776-3.984 3.96 0 2.19 1.783 3.958 3.984 3.958M419.496 105h-31.75c-2.313 0-3.746 1.866-3.746 4.163v9.175c0 .825.674 1.496 1.507 1.496.828 0 1.504-.671 1.504-1.496v-6.614h1.814v19.84c0 .906.74 1.64 1.65 1.64.914 0 1.65-.734 1.65-1.64v-14.532h1.985v14.533c0 .905.743 1.64 1.651 1.64.917 0 1.656-.735 1.656-1.64v-22.153h12.414v22.153c0 .905.737 1.64 1.648 1.64.91 0 1.653-.735 1.653-1.64v-14.533h1.985v14.533c0 .905.739 1.64 1.649 1.64.915 0 1.655-.735 1.655-1.64v-19.84h1.808v6.613c0 .825.678 1.496 1.506 1.496.831 0 1.51-.671 1.51-1.496v-9.175c0-2.297-1.436-4.163-3.749-4.163m-5.512-1.082c2.202 0 3.985-1.768 3.985-3.958 0-2.184-1.783-3.96-3.985-3.96-2.198 0-3.984 1.776-3.984 3.96 0 2.19 1.786 3.958 3.984 3.958"/><path d="M406.39 118.187V112l-5.39 3.093 5.39 3.094m-5.39-15V97l5.39 3.093-5.39 3.094"/></g><path d="M453.412 231.797c0-13.583-11.007-24.596-24.586-24.596-13.578 0-24.586 11.013-24.586 24.596 0 7.2 3.094 13.678 8.023 18.176.035 2.14.471 4.217 1.3 6.177a16.506 16.506 0 0 0 3.55 5.267 16.511 16.511 0 0 0 11.713 4.854 16.511 16.511 0 0 0 11.714-4.854 16.503 16.503 0 0 0 3.55-5.27 16.428 16.428 0 0 0 1.299-6.173c4.93-4.499 8.023-10.976 8.023-18.177zm-44.38 0c0-10.936 8.863-19.802 19.794-19.802 10.931 0 19.794 8.866 19.794 19.802s-8.863 19.8-19.794 19.8c-10.931 0-19.793-8.864-19.793-19.8zm28.592 26.7a12.359 12.359 0 0 1-8.798 3.648 12.36 12.36 0 0 1-8.798-3.645 12.388 12.388 0 0 1-3.112-5.182 24.47 24.47 0 0 0 11.91 3.074c4.322 0 8.382-1.116 11.91-3.074a12.353 12.353 0 0 1-3.112 5.18z" fill="#4B4B42"/><path d="M446.247 231.882a3.523 3.523 0 0 0-4.242-3.45 3.523 3.523 0 1 0-5.014-4.82 3.523 3.523 0 1 0-6.937-.879v18.344a3.524 3.524 0 1 0 6.935-.879 3.523 3.523 0 1 0 4.923-4.887 3.523 3.523 0 0 0 4.335-3.429zm-13.808 5.107v-10.414l9.017 5.207-9.017 5.207z" fill="#4B4B42"/><path d="M423.77 231.927a2.726 2.726 0 1 1-5.454 0 2.727 2.727 0 1 1 5.453 0" fill="#FF634C"/><path d="M413.79 229.05c-.542 0-1.037-.217-1.037-1.033-.666.677-1.442 2.303-1.442 3.687 0 .764.249 1.527.672 2.116.326.456.755.853 1.255 1.112.026.013.052.038.078.051.009.004.017.013.026.018.258.125.535.224.825.285l.003-.008a3.494 3.494 0 0 0 1.494-.026 3.523 3.523 0 1 0 4.922 4.888c-.072.28-.112.575-.112.878 0 1.946 1.623 3.524 3.57 3.524 1.944 0 3.564-1.578 3.564-3.524v-18.345c0-1.946-1.62-3.524-3.565-3.524-1.946 0-3.54 1.578-3.54 3.524 0 .304.026.597.098.879a3.53 3.53 0 0 0-2.902-1.519c-1.945 0-3.526 1.625-3.526 3.572 0 .426.038.67.199 1.24h6.65c2.816 0 5.098 2.245 5.098 5.062a5.086 5.086 0 0 1-5.098 5.085h.021a5.062 5.062 0 0 1-5.062-5.065c0-1.069.33-2.06.895-2.877h-3.085" fill="#4B4B42"/><g fill="#FFF"><path d="M585.182 8.11c2.196 0 3.983-1.77 3.983-3.96 0-2.183-1.787-3.959-3.983-3.959-2.2 0-3.984 1.776-3.984 3.96 0 2.19 1.783 3.958 3.984 3.958M611.614 9.5h-31.751c-2.313 0-3.746 1.865-3.746 4.163v9.175c0 .824.674 1.495 1.508 1.495.827 0 1.503-.67 1.503-1.495v-6.614h1.814v19.84c0 .906.74 1.64 1.65 1.64.914 0 1.65-.734 1.65-1.64V21.532h1.986v14.532c0 .906.743 1.64 1.65 1.64.917 0 1.656-.734 1.656-1.64V13.911h12.414v22.153c0 .906.737 1.64 1.649 1.64.91 0 1.652-.734 1.652-1.64V21.532h1.986v14.532c0 .906.738 1.64 1.648 1.64.915 0 1.656-.734 1.656-1.64v-19.84h1.807v6.614c0 .824.679 1.495 1.506 1.495.831 0 1.51-.67 1.51-1.495v-9.175c0-2.298-1.436-4.163-3.748-4.163m-5.316-1.39c2.202 0 3.985-1.77 3.985-3.96 0-2.183-1.783-3.959-3.985-3.959-2.198 0-3.984 1.776-3.984 3.96 0 2.19 1.786 3.958 3.984 3.958"/><path d="M598.434 22.515V16.33l-5.39 3.093 5.39 3.093m-5.39-15.233V1.096l5.39 3.093-5.39 3.094"/></g><path d="M343 288c-30.25 0-55 24.75-55 55s24.75 55 55 55 55-24.75 55-55-24.75-55-55-55zm-13.75 82.5v-55L370.5 343l-41.25 27.5zM505 288c-13.75 0-25 11.25-25 25s11.25 25 25 25 25-11.25 25-25-11.25-25-25-25zm-6.25 37.5v-25L517.5 313l-18.75 12.5z" fill="#FFF"/><path d="M708.627 25.73a4.314 4.314 0 0 0 4.32-4.316 4.32 4.32 0 0 0-8.64 0 4.316 4.316 0 0 0 4.32 4.317" fill="#444"/><g transform="translate(699 17)"><mask id="b" fill="#fff"><use xlink:href="#a"/></mask><path d="M15.755 10.247H4.065C1.556 10.247 0 12.28 0 14.785V24.79a1.634 1.634 0 1 0 3.27 0v-7.213h1.96v21.635a1.792 1.792 0 0 0 3.583 0V23.365h2.195v15.847a1.792 1.792 0 0 0 3.582 0v-18.61c-.564.458-1.259.927-2.132 1.394-6.53-3.5-3.686-7-1.945-7h.046c.67 0 1.5.387 1.9 1.225a2.151 2.151 0 0 1 1.898-1.225h.048c.953 0 2.229 1.055 2.121 2.581h.024v7.213a1.635 1.635 0 0 0 3.27 0V14.785c0-2.504-1.557-4.538-4.065-4.538" fill="#444" mask="url(#b)"/></g><g><path d="M687.262 109.841a6.84 6.84 0 0 0 6.85-6.843 6.847 6.847 0 0 0-6.85-6.844 6.85 6.85 0 0 0-6.848 6.844 6.842 6.842 0 0 0 6.848 6.843" fill="#444"/><g transform="translate(672 96)"><mask id="d" fill="#fff"><use xlink:href="#c"/></mask><path d="M24.978 16.244H6.443C2.47 16.244 0 19.47 0 23.44v15.862a2.594 2.594 0 0 0 2.597 2.583 2.591 2.591 0 0 0 2.587-2.583V27.866h3.107v34.3a2.84 2.84 0 0 0 2.847 2.833 2.834 2.834 0 0 0 2.834-2.834V37.043h3.48v25.122A2.833 2.833 0 0 0 20.283 65a2.84 2.84 0 0 0 2.847-2.834V32.66c-.894.728-1.996 1.47-3.38 2.212-10.352-5.55-5.844-11.097-3.085-11.097h.073c1.063 0 2.378.612 3.012 1.942.635-1.33 1.948-1.942 3.01-1.942h.075c1.512 0 3.535 1.672 3.364 4.091h.038v11.436a2.592 2.592 0 0 0 5.183 0V23.44c0-3.97-2.468-7.196-6.443-7.196" fill="#444" mask="url(#d)"/></g></g><g fill="#504D47"><path d="M783.793 13.948c3.777 0 6.851-3.042 6.851-6.809 0-3.756-3.074-6.81-6.85-6.81-3.786 0-6.853 3.054-6.853 6.81 0 3.767 3.067 6.81 6.852 6.81m45.462 2.391h-54.611c-3.978 0-6.442 3.208-6.442 7.16v15.781a2.582 2.582 0 0 0 2.593 2.572 2.584 2.584 0 0 0 2.586-2.572V27.905h3.12V62.03a2.832 2.832 0 0 0 2.837 2.82 2.828 2.828 0 0 0 2.84-2.82V37.035h3.414V62.03c0 1.557 1.278 2.82 2.84 2.82 1.575 0 2.847-1.263 2.847-2.82V23.927h21.352v38.104a2.828 2.828 0 0 0 2.835 2.82c1.566 0 2.843-1.263 2.843-2.82V37.035h3.415V62.03a2.83 2.83 0 0 0 2.835 2.82c1.574 0 2.848-1.263 2.848-2.82V27.905h3.109V39.28c0 1.418 1.167 2.572 2.59 2.572 1.43 0 2.596-1.154 2.596-2.572V23.5c0-3.953-2.469-7.162-6.447-7.162m-9.143-2.39c3.788 0 6.854-3.042 6.854-6.809 0-3.756-3.066-6.81-6.854-6.81-3.78 0-6.852 3.054-6.852 6.81 0 3.767 3.071 6.81 6.852 6.81"/></g><path d="M970 12V0l-10 6 10 6m-106 0V0l10 6-10 6" fill="#504D47"/></g></svg>