<svg width="84" height="17" viewBox="0 0 84 17" version="1.1" xmlns="http://www.w3.org/2000/svg"><title>logo</title><g fill="#3E3C36" stroke="none" stroke-width="1" fill-rule="evenodd"><path d="M5.022.292a5.2 5.2 0 0 0-1.87.924 4.607 4.607 0 0 0-1.284 1.591c-.316.638-.476 1.404-.476 2.294 0 1.355.346 2.46 1.04 3.31.696.849 1.608 1.415 2.746 1.697L0 16.704h4.696l4.557-6.294h2.66v6.294h3.74V0h-8.39c-.782 0-1.53.099-2.24.292zm6.892 2.586v4.795H8.365c-.428 0-.844-.034-1.242-.105a2.798 2.798 0 0 1-1.056-.397 2.207 2.207 0 0 1-.734-.782c-.184-.331-.277-.752-.277-1.266 0-.483.088-.869.264-1.158.178-.288.412-.514.708-.679a2.951 2.951 0 0 1 1.008-.327c.373-.054.762-.08 1.165-.08h3.713zM28.506 6.025a5.829 5.829 0 0 0-2.028-1.288c-.793-.303-1.674-.456-2.65-.456-.972 0-1.853.153-2.635.456a5.784 5.784 0 0 0-2.012 1.288 5.538 5.538 0 0 0-1.295 2.012c-.308.787-.456 1.663-.456 2.631 0 .968.148 1.842.456 2.621.3.78.732 1.448 1.295 2 .556.554 1.23.98 2.012 1.274.782.298 1.663.446 2.636.446.975 0 1.856-.148 2.649-.446a5.671 5.671 0 0 0 2.028-1.274 5.62 5.62 0 0 0 1.29-2c.308-.779.457-1.653.457-2.62 0-.969-.149-1.845-.457-2.632-.3-.79-.732-1.46-1.29-2.012zm-1.798 6.059c-.096.46-.26.874-.492 1.242-.23.366-.544.658-.936.877-.392.217-.877.327-1.451.327-.574 0-1.056-.11-1.437-.327a2.6 2.6 0 0 1-.925-.877 3.8 3.8 0 0 1-.492-1.242c-.096-.46-.14-.931-.14-1.416 0-.484.044-.958.14-1.426.096-.47.262-.88.492-1.24.232-.358.54-.652.925-.878.381-.226.863-.339 1.437-.339.574 0 1.059.113 1.45.339.393.226.707.52.937.877.232.36.396.771.492 1.24.096.469.14.943.14 1.427 0 .485-.044.956-.14 1.416zM40.35 6.081h-.052a3.621 3.621 0 0 0-1.568-1.344 5.002 5.002 0 0 0-2.098-.456c-.914 0-1.71.176-2.399.527-.684.35-1.26.814-1.712 1.392a6.033 6.033 0 0 0-1.033 2 7.997 7.997 0 0 0-.345 2.35 8.5 8.5 0 0 0 .345 2.434c.23.78.577 1.471 1.033 2.071a4.88 4.88 0 0 0 1.736 1.428c.702.351 1.52.526 2.447.526.813 0 1.546-.143 2.191-.43.649-.293 1.173-.764 1.57-1.42h.051v1.545h3.234V0h-3.4v6.081zm-.028 5.991a3.848 3.848 0 0 1-.478 1.254 2.537 2.537 0 0 1-.899.877c-.38.217-.841.327-1.404.327-.526 0-.974-.114-1.351-.342a2.86 2.86 0 0 1-.935-.889 3.663 3.663 0 0 1-.54-1.25 5.918 5.918 0 0 1-.17-1.404c0-.498.055-.98.156-1.44a3.79 3.79 0 0 1 .503-1.227c.231-.36.54-.648.925-.866.382-.219.856-.327 1.412-.327.563 0 1.024.108 1.393.327.368.218.664.504.9.855.228.35.394.757.488 1.214.1.462.144.942.144 1.44 0 .5-.044.983-.144 1.451zM55.942 6.481a5.468 5.468 0 0 0-1.927-1.603c-.787-.398-1.707-.597-2.759-.597-.943 0-1.8.165-2.581.492a6.158 6.158 0 0 0-2 1.345 5.85 5.85 0 0 0-1.29 2.024 6.871 6.871 0 0 0-.46 2.526c0 .936.15 1.795.446 2.574.292.78.716 1.45 1.256 2.014a5.516 5.516 0 0 0 1.99 1.295c.783.306 1.663.458 2.64.458 1.405 0 2.605-.312 3.595-.937.988-.623 1.724-1.66 2.204-3.11h-.001l.056-.187h-2.995l-.056.186c-.114.375-.412.73-.908 1.065-.498.336-1.092.504-1.776.504-.96 0-1.695-.243-2.205-.727-.514-.483-.795-1.263-.84-2.338h8.94a8.311 8.311 0 0 0-.238-2.693 6.45 6.45 0 0 0-1.09-2.29zm-7.61 2.878c.017-.235.067-.5.156-.797.087-.295.237-.577.455-.841.215-.265.502-.489.862-.667.363-.179.81-.269 1.354-.269.833 0 1.45.219 1.859.654.409.436.69 1.077.85 1.92h-5.537zM68.158 10.447a4.868 4.868 0 0 0-1.258-.621 15.185 15.185 0 0 0-1.45-.398c-.48-.11-.952-.21-1.418-.304a11.25 11.25 0 0 1-1.234-.316c-.36-.117-.652-.268-.872-.456a.892.892 0 0 1-.337-.725c0-.25.064-.449.19-.596.13-.15.283-.26.468-.34.185-.078.386-.13.615-.152.22-.023.43-.036.62-.036.607 0 1.134.116 1.584.34.446.225.696.659.74 1.3h3.237c-.063-.75-.26-1.37-.585-1.86A3.888 3.888 0 0 0 67.222 5.1a5.291 5.291 0 0 0-1.688-.633 10.12 10.12 0 0 0-1.956-.187c-.672 0-1.326.057-1.967.176a5.5 5.5 0 0 0-1.726.609 3.334 3.334 0 0 0-1.232 1.182c-.312.498-.468 1.137-.468 1.917 0 .53.114.979.334 1.345.224.367.52.67.889.913.369.242.785.438 1.257.586.47.146.955.276 1.453.386 1.212.248 2.158.498 2.838.747.68.249 1.018.625 1.018 1.123 0 .296-.068.543-.212.737a1.652 1.652 0 0 1-.544.47 2.591 2.591 0 0 1-.716.256 3.63 3.63 0 0 1-.756.082 3.9 3.9 0 0 1-.97-.117c-.31-.079-.586-.2-.829-.363a1.92 1.92 0 0 1-.585-.633c-.152-.257-.227-.563-.227-.922h-3.238c.03.81.22 1.485.56 2.023.348.537.784.971 1.32 1.3.536.327 1.148.56 1.834.701.688.141 1.39.21 2.109.21.706 0 1.396-.066 2.076-.2a5.25 5.25 0 0 0 1.808-.689 3.88 3.88 0 0 0 1.284-1.299c.326-.537.49-1.206.49-2 0-.562-.111-1.032-.335-1.416a2.978 2.978 0 0 0-.885-.958M77.94 9.054l4.673-4.444h-4.025l-4.293 4.35V0h-3.406v16.704h3.406V12.54l1.321-1.24 3.404 5.404h4.12l-5.2-7.65"/></g></svg>